<svg width="148" height="24" viewBox="0 0 148 24" fill="none" xmlns="http://www.w3.org/2000/svg">
<g id="noves-logo-primary-white.675ecb6e.svg" clip-path="url(#clip0_4_1831)">
<path id="Vector" d="M44.0224 0.0592041H48.8966L57.0098 11.266C58.3204 13.049 59.8103 15.5951 59.8103 15.5951V0.0592041H64.9049V23.6356H59.9919L52.1332 12.8649C50.5682 10.7548 49.1122 8.24504 49.1122 8.24504V23.6356H44.0176V0.0592041H44.0224ZM69.2728 14.5388C69.2728 9.26251 73.5655 5.07875 78.9872 5.07875C84.4089 5.07875 88.738 9.26251 88.738 14.5388C88.738 19.8152 84.4453 23.9989 78.9872 23.9989C73.5292 23.9989 69.2728 19.8152 69.2728 14.5388ZM83.7548 14.5388C83.7548 11.702 81.7175 9.58956 78.9872 9.58956C76.257 9.58956 74.2221 11.6996 74.2221 14.5388C74.2221 17.3781 76.2594 19.4881 78.9872 19.4881C81.715 19.4881 83.7548 17.4144 83.7548 14.5388ZM90.4847 5.44456H95.3589L98.7432 14.7956C99.4337 16.6877 100.017 18.5797 100.09 18.834C100.127 18.5797 100.744 16.615 101.401 14.832L104.785 5.44456H109.623L102.455 23.6719H97.6531L90.4847 5.44456ZM111.37 14.5388C111.37 9.29885 115.444 5.07875 120.793 5.07875C125.743 5.07875 129.636 9.29885 129.636 14.4662C129.636 15.3383 129.527 16.2128 129.527 16.2128H116.319C116.9 18.7226 118.974 19.9242 121.377 19.9242C123.124 19.9242 124.943 19.4155 126.29 18.5046L128.11 21.9979C126.072 23.3449 123.708 23.9989 121.341 23.9989C116.028 23.9989 111.372 20.542 111.372 14.5388H111.37ZM125.05 12.9739C124.686 10.6821 122.867 9.1535 120.648 9.1535C118.429 9.1535 116.719 10.6821 116.246 12.9739H125.052H125.05ZM132.618 21.5255L134.365 17.7778C135.602 18.725 137.313 19.7062 140.041 19.7062C141.167 19.7062 143.023 19.2701 143.023 18.1775C143.023 17.085 141.458 16.8306 139.893 16.3945C136.29 15.4473 133.345 14.2481 133.345 10.7548C133.345 7.04345 136.983 5.07875 140.404 5.07875C143.386 5.07875 145.278 5.80552 147.173 6.89809L145.535 10.5368C143.752 9.66466 142.078 9.26251 140.477 9.26251C139.35 9.26251 138.294 9.77125 138.294 10.5368C138.294 11.5567 139.823 11.8837 141.497 12.2471C144.59 12.9739 147.972 14.3208 147.972 18.0322C147.972 22.5067 143.425 23.9989 140.041 23.9989C136.148 23.9989 133.638 22.4703 132.618 21.5255Z" fill="white"/>
<g id="Group">
<path id="Vector_2" d="M32.4986 17.8456V23.6356H28.9472C25.1438 23.6356 21.3936 22.7295 18.0093 20.9901L10.9379 17.3563C7.55364 15.6186 3.80427 14.7118 0 14.7109L0 8.92336H1.40024C5.20366 8.92336 8.95136 9.82939 12.3333 11.5664L19.4096 15.2002C22.7922 16.9371 26.54 17.8431 30.3426 17.8432H32.4962L32.4986 17.8456Z" fill="url(#paint0_linear_4_1831)"/>
<path id="Vector_3" d="M0 17.8602V23.6356H9.0628V19.9509C6.24778 18.587 3.12753 17.8602 0 17.8602Z" fill="url(#paint1_linear_4_1831)"/>
<g id="Group_2">
<path id="Vector_4" d="M32.4986 8.92335V14.7108H31.0936C27.2901 14.7108 23.5424 13.8048 20.1581 12.0654L13.0842 8.43157C9.70099 6.69364 5.95234 5.78679 2.14881 5.78614H0V0.00106049H3.54905C7.35247 0.00106049 11.1002 0.907098 14.4821 2.64407L21.5608 6.28034C24.9434 8.0175 28.6912 8.92354 32.4938 8.92335H32.4962H32.4986Z" fill="url(#paint2_linear_4_1831)"/>
<path id="Vector_5" d="M32.4983 5.7716V0.00106049H23.4355V3.68335C26.2506 5.04483 29.3684 5.7716 32.4959 5.7716H32.4983Z" fill="url(#paint3_linear_4_1831)"/>
</g>
</g>
</g>
<defs>
<linearGradient id="paint0_linear_4_1831" x1="40.5294" y1="0.299041" x2="9.69509" y2="20.5928" gradientUnits="userSpaceOnUse">
<stop stop-color="#33CCFF"/>
<stop offset="1" stop-color="#9933CC"/>
</linearGradient>
<linearGradient id="paint1_linear_4_1831" x1="39.0396" y1="-1.96605" x2="8.20764" y2="18.3302" gradientUnits="userSpaceOnUse">
<stop stop-color="#33CCFF"/>
<stop offset="1" stop-color="#9933CC"/>
</linearGradient>
<linearGradient id="paint2_linear_4_1831" x1="36.4305" y1="-5.92695" x2="5.59854" y2="14.3668" gradientUnits="userSpaceOnUse">
<stop stop-color="#33CCFF"/>
<stop offset="1" stop-color="#9933CC"/>
</linearGradient>
<linearGradient id="paint3_linear_4_1831" x1="37.92" y1="-3.66427" x2="7.08811" y2="16.6295" gradientUnits="userSpaceOnUse">
<stop stop-color="#33CCFF"/>
<stop offset="1" stop-color="#9933CC"/>
</linearGradient>
<clipPath id="clip0_4_1831">
<rect width="147.97" height="23.9979" fill="white" transform="translate(0 0.00106049)"/>
</clipPath>
</defs>
</svg>
